<?xml version="1.0" encoding="UTF-8" standalone="no"?>
<svg
   xmlns:dc="http://purl.org/dc/elements/1.1/"
   xmlns:cc="http://creativecommons.org/ns#"
   xmlns:rdf="http://www.w3.org/1999/02/22-rdf-syntax-ns#"
   xmlns:svg="http://www.w3.org/2000/svg"
   xmlns="http://www.w3.org/2000/svg"
   xmlns:sodipodi="http://sodipodi.sourceforge.net/DTD/sodipodi-0.dtd"
   xmlns:inkscape="http://www.inkscape.org/namespaces/inkscape"
   sodipodi:docname="infintebasket_v1.1.svg"
   inkscape:version="1.0 (4035a4fb49, 2020-05-01)"
   id="svg8"
   version="1.1"
   viewBox="0 0 507.99999 285.75001"
   height="1080"
   width="1920"
   inkscape:export-filename="C:\Users\rkaku\Desktop\insureleaguehd.png"
   inkscape:export-xdpi="272.26999"
   inkscape:export-ydpi="272.26999">
  <defs
     id="defs2">
    <rect
       x="336.1669"
       y="37.465931"
       width="98.283913"
       height="15.653573"
       id="rect865" />
    <rect
       x="357.72263"
       y="130.87415"
       width="95.204521"
       height="18.98958"
       id="rect859" />
    <inkscape:path-effect
       only_selected="false"
       apply_with_weight="true"
       apply_no_weight="true"
       helper_size="0"
       steps="2"
       weight="33.333333"
       lpeversion="1"
       is_visible="true"
       id="path-effect909"
       effect="bspline" />
    <inkscape:path-effect
       only_selected="false"
       apply_with_weight="true"
       apply_no_weight="true"
       helper_size="0"
       steps="2"
       weight="33.333333"
       lpeversion="1"
       is_visible="true"
       id="path-effect905"
       effect="bspline" />
    <inkscape:path-effect
       only_selected="false"
       apply_with_weight="true"
       apply_no_weight="true"
       helper_size="0"
       steps="2"
       weight="33.333333"
       lpeversion="1"
       is_visible="true"
       id="path-effect895"
       effect="bspline" />
    <inkscape:path-effect
       only_selected="false"
       apply_with_weight="true"
       apply_no_weight="true"
       helper_size="0"
       steps="2"
       weight="33.333333"
       lpeversion="1"
       is_visible="true"
       id="path-effect891"
       effect="bspline" />
    <inkscape:path-effect
       effect="bspline"
       id="path-effect859"
       is_visible="true"
       lpeversion="1"
       weight="33.333333"
       steps="2"
       helper_size="0"
       apply_no_weight="true"
       apply_with_weight="true"
       only_selected="false" />
    <inkscape:path-effect
       only_selected="false"
       apply_with_weight="true"
       apply_no_weight="true"
       helper_size="0"
       steps="2"
       weight="33.333333"
       lpeversion="1"
       is_visible="true"
       id="path-effect855"
       effect="bspline" />
    <inkscape:path-effect
       only_selected="false"
       apply_with_weight="true"
       apply_no_weight="true"
       helper_size="0"
       steps="2"
       weight="33.333333"
       lpeversion="1"
       is_visible="true"
       id="path-effect851"
       effect="bspline" />
  </defs>
  <sodipodi:namedview
     inkscape:window-maximized="1"
     inkscape:window-y="-9"
     inkscape:window-x="-9"
     inkscape:window-height="1001"
     inkscape:window-width="1920"
     showgrid="false"
     inkscape:document-rotation="0"
     inkscape:current-layer="g909"
     inkscape:document-units="mm"
     inkscape:cy="372.39136"
     inkscape:cx="1284.7559"
     inkscape:zoom="0.28252399"
     inkscape:pageshadow="2"
     inkscape:pageopacity="0.0"
     borderopacity="1.0"
     bordercolor="#666666"
     pagecolor="#ffffff"
     id="base"
     units="px" />
  <metadata
     id="metadata5">
    <rdf:RDF>
      <cc:Work
         rdf:about="">
        <dc:format>image/svg+xml</dc:format>
        <dc:type
           rdf:resource="http://purl.org/dc/dcmitype/StillImage" />
        <dc:title />
      </cc:Work>
    </rdf:RDF>
  </metadata>
  <g
     id="layer1"
     inkscape:groupmode="layer"
     inkscape:label="Layer 1">
    <g
       id="g909"
       transform="matrix(5.5076152,0,0,5.5076152,-1791.7345,-460.12301)"
       inkscape:export-xdpi="96.330002"
       inkscape:export-ydpi="96.330002">
      <g
         id="g882">
        <path
           d="m 352.86906,101.18117 c 0.83886,-2.319849 2.7376,-4.425008 5.28292,-4.784097 1.88603,-0.379435 3.92393,0.198965 5.27457,1.583548 2.32743,2.086409 4.25948,4.567289 6.23547,6.976949 1.56371,1.83397 2.92673,3.83633 4.54779,5.61849 1.60469,1.74041 4.12838,2.71263 6.45853,2.06788 1.23883,-0.58888 -0.59237,0.98687 -0.99962,1.24292 -2.03792,1.47427 -4.88225,1.69587 -7.08469,0.45402 -2.74598,-1.43399 -4.51655,-4.07602 -6.64109,-6.23449 -2.05628,-2.2434 -3.93743,-4.66473 -6.17408,-6.73212 -1.39862,-1.09845 -3.37629,-2.104438 -5.1235,-1.19735 -0.64598,0.10052 -1.27691,1.07767 -1.7763,1.00425 z"
           style="fill:#10a89c;fill-opacity:1;stroke:#10a89c;stroke-width:0.1;stroke-linecap:butt;stroke-linejoin:miter;stroke-opacity:1"
           id="path889" />
        <path
           d="m 353.34936,111.73204 c 2.50881,1.29961 5.62692,0.6109 7.88458,-0.89507 1.99632,-1.4355 3.54475,-3.38288 5.37285,-5.01416 2.11403,-1.9263 4.50411,-3.90765 7.44043,-4.2781 2.45492,-0.34287 4.88872,0.88558 6.36937,2.81279 0.25007,0.35361 0.97613,1.10067 0.0645,0.71464 -3.45942,-0.38704 -6.86434,1.37383 -9.1387,3.89982 -2.3388,2.19052 -4.678,4.41215 -7.30017,6.26255 -3.38273,2.06977 -8.45921,1.16115 -10.48029,-2.38777 -0.1371,-0.12017 -0.68876,-1.43697 -0.21256,-1.1147 z"
           style="fill:#c1db30;fill-opacity:1;stroke:#c1db30;stroke-width:0.1;stroke-linecap:butt;stroke-linejoin:miter;stroke-opacity:1"
           id="path893" />
        <path
           d="m 352.72415,101.4363 c -1.26607,2.08464 -1.50906,4.69682 -0.90866,7.03661 0.21631,0.83191 0.40174,1.68678 0.77513,2.46451 0.46135,0.85964 1.48294,1.10496 2.3606,1.30114 1.62561,0.30416 3.31388,0.0234 4.84309,-0.56724 0.3043,-0.46595 -0.16608,-0.92238 -0.39067,-1.30748 -0.2623,-0.48223 -0.38845,-1.02597 -0.58445,-1.53959 -0.53479,-1.74024 -0.71426,-3.62044 -0.35941,-5.41362 0.18014,-0.71875 0.50324,-1.40342 0.95743,-1.98983 -0.0135,-0.61755 -0.70607,-0.76965 -1.16442,-0.97094 -1.09173,-0.639827 -2.524,-0.833121 -3.66867,-0.20825 -0.60396,0.30993 -1.14908,0.73081 -1.76408,1.01561 -0.0495,0.0477 -0.0856,0.11061 -0.0959,0.17908 z"
           style="fill:#bdc2c6;fill-opacity:1;stroke:#bdc0c9;stroke-width:0.1;stroke-linecap:butt;stroke-linejoin:miter;stroke-miterlimit:4;stroke-dasharray:none;stroke-opacity:1"
           id="path903" />
        <path
           d="m 381.00444,105.25117 c 0.78365,1.41536 0.91912,3.07884 0.88619,4.66614 -0.11665,0.84327 -0.46149,1.63005 -0.79882,2.40409 -0.43315,0.42992 -1.08638,0.40737 -1.64583,0.51268 -1.06101,0.0248 -2.12193,-0.21636 -3.08913,-0.64552 -0.41399,-0.33244 0.20482,-0.71313 0.45542,-0.91688 0.58817,-0.64578 1.05733,-1.4371 1.17056,-2.3163 0.099,-0.75022 -0.0407,-1.51643 -0.27398,-2.22948 -0.0957,-0.43088 -0.44658,-0.79447 -0.46282,-1.23114 0.16113,-0.38772 0.64138,-0.32015 0.98372,-0.35564 0.91248,-0.0728 1.85678,-0.19947 2.7486,0.0788 l 0.0261,0.0333 z"
           style="fill:#bdc0c9;fill-opacity:1;stroke:#bdc0c9;stroke-width:0.1;stroke-linecap:butt;stroke-linejoin:miter;stroke-opacity:1"
           id="path907" />
        <ellipse
           ry="3.4829824"
           rx="3.4362104"
           cy="90.153351"
           cx="360.62924"
           id="path911"
           style="opacity:0.993443;fill:#10a89c;fill-opacity:1;stroke:#10a89c;stroke-width:0.103088;stroke-linejoin:bevel;stroke-opacity:0.99607843" />
        <ellipse
           style="opacity:0.993443;fill:#c1db30;fill-opacity:1;stroke:#c1db30;stroke-width:0.0752782;stroke-linejoin:bevel;stroke-opacity:0.99607843"
           id="ellipse915"
           cx="375.16992"
           cy="96.298546"
           rx="2.5092347"
           ry="2.5433893" />
        <text
           xml:space="preserve"
           id="text857"
           style="font-style:normal;font-variant:normal;font-weight:normal;font-stretch:normal;font-size:10.5833px;line-height:1.25;font-family:'Bell MT';-inkscape-font-specification:'Bell MT, Normal';font-variant-ligatures:normal;font-variant-caps:normal;font-variant-numeric:normal;font-variant-east-asian:normal;white-space:pre;shape-inside:url(#rect859);fill:#10a89c;fill-opacity:1;stroke:none;"
           transform="matrix(0.54424906,0,0,0.6473582,148.36549,33.666021)"><tspan
             x="357.72266"
             y="139.76925"><tspan
               style="font-style:normal;font-variant:normal;font-weight:normal;font-stretch:normal;font-size:10.5833px;font-family:'Bell MT';-inkscape-font-specification:'Bell MT, Normal';font-variant-ligatures:normal;font-variant-caps:normal;font-variant-numeric:normal;font-variant-east-asian:normal;fill:#10a89c;fill-opacity:1">INSURE LEAGUE</tspan></tspan></text>
        <text
           xml:space="preserve"
           id="text863"
           style="font-style:normal;font-variant:normal;font-weight:normal;font-stretch:normal;font-size:10.5833px;line-height:1.25;font-family:'Script MT Bold';-inkscape-font-specification:'Script MT Bold, Normal';font-variant-ligatures:normal;font-variant-caps:normal;font-variant-numeric:normal;font-variant-east-asian:normal;white-space:pre;shape-inside:url(#rect865);fill:#24958c;fill-opacity:1;stroke:none;"
           transform="matrix(0.41096304,0,0,0.41096304,231.74961,110.47437)"><tspan
             x="336.16602"
             y="46.567534"><tspan
               style="font-style:normal;font-variant:normal;font-weight:normal;font-stretch:normal;font-size:10.5833px;font-family:'Script MT Bold';-inkscape-font-specification:'Script MT Bold, Normal';font-variant-ligatures:normal;font-variant-caps:normal;font-variant-numeric:normal;font-variant-east-asian:normal;fill:#24958c;fill-opacity:1">Securing Lives</tspan></tspan></text>
      </g>
    </g>
  </g>
</svg>
